<?xml version="1.0" standalone="no"?>
<!DOCTYPE svg PUBLIC "-//W3C//DTD SVG 20010904//EN"
 "http://www.w3.org/TR/2001/REC-SVG-20010904/DTD/svg10.dtd">
<svg version="1.0" xmlns="http://www.w3.org/2000/svg"
 width="1000.000000pt" height="1000.000000pt" viewBox="0 0 1000.000000 1000.000000"
 preserveAspectRatio="xMidYMid meet">
<metadata>
Created by potrace 1.16, written by Peter Selinger 2001-2019
</metadata>
<g transform="translate(0.000000,1000.000000) scale(0.100000,-0.100000)"
fill="#000000" stroke="none">
<path d="M284 8387 c130 -111 267 -225 306 -257 24 -19 76 -62 115 -95 38 -34
149 -126 245 -206 211 -176 207 -172 300 -252 41 -35 181 -151 310 -257 129
-107 269 -223 310 -258 41 -35 90 -76 108 -91 18 -14 48 -38 66 -53 l34 -28
906 0 906 0 0 -14 c0 -13 -11 -43 -71 -186 -10 -25 -29 -74 -43 -110 -71 -189
-89 -237 -97 -255 -4 -11 -24 -63 -44 -115 -20 -52 -51 -133 -70 -180 -19 -47
-50 -128 -70 -180 -19 -52 -44 -115 -55 -140 -10 -25 -31 -76 -45 -115 -34
-89 -111 -286 -135 -345 -11 -25 -45 -110 -75 -190 -31 -80 -77 -197 -102
-260 -24 -63 -65 -167 -90 -230 -65 -167 -142 -362 -153 -385 -5 -11 -22 -54
-38 -95 -17 -41 -56 -138 -87 -215 -32 -77 -66 -162 -77 -190 -10 -27 -23 -59
-28 -70 -20 -44 -78 -200 -75 -203 3 -3 92 57 190 128 22 16 126 90 230 164
105 74 222 158 260 185 97 70 495 353 521 371 12 8 104 74 204 145 101 72 219
156 264 188 44 31 115 81 156 110 76 55 293 208 410 292 36 25 139 99 230 164
524 373 565 402 670 476 36 25 101 72 146 103 125 89 185 139 232 195 46 56
99 159 182 357 18 41 38 89 46 105 7 17 38 91 69 165 30 74 63 150 72 168 23
46 102 115 149 131 l39 13 680 8 680 8 70 11 c85 13 259 57 300 75 17 8 41 17
55 21 44 13 222 105 294 152 118 78 186 133 304 247 185 179 275 294 407 516
37 63 82 140 100 170 43 72 66 113 122 218 25 48 49 91 54 97 5 5 9 15 9 22
l0 13 -4722 -1 -4723 0 49 -42z"/>
<path d="M8555 6699 c-27 -5 -122 -18 -210 -29 -88 -10 -169 -22 -180 -25 -11
-3 -96 -14 -190 -25 -93 -11 -253 -31 -355 -44 -102 -14 -256 -34 -343 -45
-87 -11 -161 -22 -165 -25 -4 -2 -97 -12 -207 -21 -196 -16 -275 -29 -275 -43
0 -4 23 -34 50 -67 28 -33 58 -69 68 -81 9 -12 60 -72 112 -134 52 -61 95
-116 95 -120 0 -4 -28 -28 -62 -52 -74 -52 -415 -293 -533 -376 -47 -33 -114
-81 -150 -107 -141 -100 -385 -274 -480 -340 -55 -38 -131 -92 -170 -120 -38
-27 -133 -95 -211 -150 -208 -146 -331 -233 -354 -249 -11 -8 -50 -36 -87 -63
-37 -26 -120 -85 -185 -130 -216 -151 -357 -251 -423 -298 -81 -59 -322 -227
-375 -263 -21 -15 -76 -54 -122 -87 -81 -59 -150 -108 -285 -203 -171 -119
-273 -191 -337 -237 -38 -27 -109 -77 -156 -110 -47 -33 -117 -82 -156 -110
-38 -27 -98 -69 -132 -93 -34 -24 -108 -75 -164 -115 -56 -40 -163 -115 -238
-167 -74 -52 -182 -128 -238 -167 -124 -88 -209 -148 -302 -213 -38 -27 -78
-55 -87 -62 -23 -16 -122 -87 -258 -183 -58 -40 -116 -82 -130 -92 -82 -60
-432 -310 -447 -320 l-18 -12 75 20 c41 11 89 27 107 35 17 8 36 14 41 14 14
0 150 55 282 115 58 26 168 74 245 107 77 33 164 71 193 84 29 13 55 24 58 24
5 0 68 27 149 65 17 7 64 28 105 46 73 30 133 57 195 85 227 102 391 171 398
167 4 -3 4 -10 -1 -16 -5 -7 -37 -75 -71 -152 -34 -77 -66 -149 -71 -160 -5
-11 -38 -85 -73 -165 -149 -337 -229 -518 -248 -556 -10 -23 -19 -44 -19 -47
0 -4 -11 -31 -25 -61 -14 -30 -25 -58 -25 -63 0 -5 -8 -24 -19 -43 -10 -19
-22 -46 -26 -60 -4 -14 -13 -38 -20 -55 -34 -78 -64 -159 -60 -165 4 -7 352
166 1245 616 484 244 594 306 757 427 124 92 209 171 282 261 114 141 195 278
281 476 18 41 38 89 46 105 7 17 40 93 73 170 33 77 103 239 156 360 54 121
105 240 115 265 10 25 39 90 63 145 l46 100 175 125 c97 69 236 168 311 220
135 95 223 157 497 351 81 57 200 141 265 186 65 45 201 140 303 212 102 71
245 171 318 223 73 51 182 128 242 171 59 42 112 77 117 77 5 0 20 -19 33 -42
12 -24 34 -63 47 -87 43 -79 69 -124 145 -251 41 -69 88 -149 104 -177 16 -29
32 -53 35 -53 11 0 25 22 79 125 29 55 65 123 80 150 15 28 60 113 100 190 40
77 96 185 125 240 29 55 121 235 205 400 189 371 226 441 333 633 l86 152 -52
-1 c-29 -1 -74 -6 -102 -10z"/>
</g>
</svg>
